<svg width="350" height="62" viewBox="0 0 350 62" fill="none" xmlns="http://www.w3.org/2000/svg">
<rect width="350" height="62" rx="20" fill="url(#paint0_linear_36_2136)"/>
<path d="M81.3594 29.9844V39.1562C80.9844 39.5833 80.4115 40.0417 79.6406 40.5312C78.8802 41.0208 77.9062 41.4427 76.7188 41.7969C75.5312 42.1406 74.1146 42.3125 72.4688 42.3125C70.9792 42.3125 69.625 42.0729 68.4062 41.5938C67.1875 41.1042 66.1406 40.3906 65.2656 39.4531C64.3906 38.5052 63.7135 37.349 63.2344 35.9844C62.7656 34.6198 62.5312 33.0573 62.5312 31.2969V29.9531C62.5312 28.1927 62.7656 26.6302 63.2344 25.2656C63.7031 23.901 64.3646 22.75 65.2188 21.8125C66.0729 20.8646 67.0885 20.1458 68.2656 19.6562C69.4427 19.1667 70.7448 18.9219 72.1719 18.9219C74.2031 18.9219 75.8646 19.25 77.1562 19.9062C78.4479 20.5521 79.4271 21.4479 80.0938 22.5938C80.7708 23.7396 81.1875 25.0573 81.3438 26.5469H76.4375C76.3333 25.7865 76.125 25.1302 75.8125 24.5781C75.5104 24.026 75.0781 23.6042 74.5156 23.3125C73.9531 23.0104 73.224 22.8594 72.3281 22.8594C71.6094 22.8594 70.9583 23.0104 70.375 23.3125C69.8021 23.6042 69.3177 24.0469 68.9219 24.6406C68.526 25.2344 68.224 25.974 68.0156 26.8594C67.8073 27.7344 67.7031 28.7552 67.7031 29.9219V31.2969C67.7031 32.4635 67.8073 33.4896 68.0156 34.375C68.2344 35.2604 68.5521 36 68.9688 36.5938C69.3854 37.1771 69.9115 37.6198 70.5469 37.9219C71.1927 38.224 71.9427 38.375 72.7969 38.375C73.4635 38.375 74.026 38.3229 74.4844 38.2188C74.9427 38.1042 75.3177 37.9635 75.6094 37.7969C75.901 37.6198 76.1198 37.4583 76.2656 37.3125V33.5312H72.2188V29.9844H81.3594ZM92.5625 42.3125C91.2188 42.3125 90.0156 42.099 88.9531 41.6719C87.8906 41.2448 86.9896 40.6562 86.25 39.9062C85.5208 39.1458 84.9635 38.2708 84.5781 37.2812C84.1927 36.2917 84 35.2344 84 34.1094V33.5156C84 32.2552 84.1771 31.0938 84.5312 30.0312C84.8854 28.9688 85.401 28.0469 86.0781 27.2656C86.7656 26.474 87.6094 25.8646 88.6094 25.4375C89.6094 25 90.75 24.7812 92.0312 24.7812C93.2292 24.7812 94.2969 24.9792 95.2344 25.375C96.1719 25.7604 96.9635 26.3177 97.6094 27.0469C98.2552 27.7656 98.7448 28.6354 99.0781 29.6562C99.4219 30.6667 99.5938 31.8021 99.5938 33.0625V35.0625H85.9688V31.9219H94.8125V31.5469C94.8125 30.9531 94.7031 30.4323 94.4844 29.9844C94.276 29.5365 93.9635 29.1927 93.5469 28.9531C93.1406 28.7031 92.625 28.5781 92 28.5781C91.4062 28.5781 90.9115 28.7031 90.5156 28.9531C90.1198 29.2031 89.8021 29.5573 89.5625 30.0156C89.3333 30.4635 89.1667 30.9896 89.0625 31.5938C88.9583 32.1875 88.9062 32.8281 88.9062 33.5156V34.1094C88.9062 34.7656 88.9948 35.3646 89.1719 35.9062C89.349 36.4479 89.6094 36.9115 89.9531 37.2969C90.2969 37.6823 90.7135 37.9844 91.2031 38.2031C91.6927 38.4219 92.25 38.5312 92.875 38.5312C93.6458 38.5312 94.3802 38.3854 95.0781 38.0938C95.776 37.7917 96.3802 37.3229 96.8906 36.6875L99.1719 39.2969C98.8281 39.7969 98.3438 40.2812 97.7188 40.75C97.1042 41.2083 96.3646 41.5833 95.5 41.875C94.6354 42.1667 93.6562 42.3125 92.5625 42.3125ZM106.75 28.7031V42H101.859V25.0938H106.453L106.75 28.7031ZM106.109 32.9531L104.891 32.9844C104.891 31.7135 105.047 30.5729 105.359 29.5625C105.672 28.5521 106.115 27.6927 106.688 26.9844C107.271 26.2656 107.964 25.7188 108.766 25.3438C109.578 24.9688 110.474 24.7812 111.453 24.7812C112.245 24.7812 112.969 24.8958 113.625 25.125C114.281 25.3542 114.844 25.724 115.312 26.2344C115.792 26.7344 116.156 27.401 116.406 28.2344C116.656 29.0573 116.781 30.0729 116.781 31.2812V42H111.875V31.2656C111.875 30.5573 111.776 30.0104 111.578 29.625C111.38 29.2396 111.089 28.9688 110.703 28.8125C110.328 28.6562 109.87 28.5781 109.328 28.5781C108.755 28.5781 108.266 28.6927 107.859 28.9219C107.453 29.1406 107.12 29.4479 106.859 29.8438C106.599 30.2396 106.406 30.7031 106.281 31.2344C106.167 31.7656 106.109 32.3385 106.109 32.9531ZM127.938 42.3125C126.594 42.3125 125.391 42.099 124.328 41.6719C123.266 41.2448 122.365 40.6562 121.625 39.9062C120.896 39.1458 120.339 38.2708 119.953 37.2812C119.568 36.2917 119.375 35.2344 119.375 34.1094V33.5156C119.375 32.2552 119.552 31.0938 119.906 30.0312C120.26 28.9688 120.776 28.0469 121.453 27.2656C122.141 26.474 122.984 25.8646 123.984 25.4375C124.984 25 126.125 24.7812 127.406 24.7812C128.604 24.7812 129.672 24.9792 130.609 25.375C131.547 25.7604 132.339 26.3177 132.984 27.0469C133.63 27.7656 134.12 28.6354 134.453 29.6562C134.797 30.6667 134.969 31.8021 134.969 33.0625V35.0625H121.344V31.9219H130.188V31.5469C130.188 30.9531 130.078 30.4323 129.859 29.9844C129.651 29.5365 129.339 29.1927 128.922 28.9531C128.516 28.7031 128 28.5781 127.375 28.5781C126.781 28.5781 126.286 28.7031 125.891 28.9531C125.495 29.2031 125.177 29.5573 124.938 30.0156C124.708 30.4635 124.542 30.9896 124.438 31.5938C124.333 32.1875 124.281 32.8281 124.281 33.5156V34.1094C124.281 34.7656 124.37 35.3646 124.547 35.9062C124.724 36.4479 124.984 36.9115 125.328 37.2969C125.672 37.6823 126.089 37.9844 126.578 38.2031C127.068 38.4219 127.625 38.5312 128.25 38.5312C129.021 38.5312 129.755 38.3854 130.453 38.0938C131.151 37.7917 131.755 37.3229 132.266 36.6875L134.547 39.2969C134.203 39.7969 133.719 40.2812 133.094 40.75C132.479 41.2083 131.74 41.5833 130.875 41.875C130.01 42.1667 129.031 42.3125 127.938 42.3125ZM142.234 29.0312V42H137.359V25.0938H141.938L142.234 29.0312ZM147.281 24.9688L147.203 29.5156C146.995 29.4844 146.724 29.4583 146.391 29.4375C146.057 29.4062 145.771 29.3906 145.531 29.3906C144.906 29.3906 144.365 29.4688 143.906 29.625C143.458 29.7708 143.083 29.9896 142.781 30.2812C142.49 30.5729 142.271 30.9375 142.125 31.375C141.979 31.8021 141.906 32.2969 141.906 32.8594L140.984 32.4062C140.984 31.2917 141.094 30.2708 141.312 29.3438C141.531 28.4167 141.849 27.6146 142.266 26.9375C142.682 26.25 143.193 25.7188 143.797 25.3438C144.401 24.9688 145.089 24.7812 145.859 24.7812C146.109 24.7812 146.365 24.7969 146.625 24.8281C146.885 24.8594 147.104 24.9062 147.281 24.9688ZM157.734 37.9688V30.7188C157.734 30.2083 157.656 29.7708 157.5 29.4062C157.344 29.0417 157.099 28.7552 156.766 28.5469C156.432 28.3385 156 28.2344 155.469 28.2344C155.021 28.2344 154.63 28.3125 154.297 28.4688C153.974 28.625 153.724 28.849 153.547 29.1406C153.38 29.4323 153.297 29.7917 153.297 30.2188H148.422C148.422 29.4583 148.594 28.75 148.938 28.0938C149.281 27.4375 149.771 26.8594 150.406 26.3594C151.052 25.8594 151.823 25.474 152.719 25.2031C153.615 24.9219 154.62 24.7812 155.734 24.7812C157.057 24.7812 158.234 25.0052 159.266 25.4531C160.307 25.8906 161.13 26.5521 161.734 27.4375C162.339 28.3125 162.641 29.4167 162.641 30.75V37.8281C162.641 38.849 162.698 39.651 162.812 40.2344C162.938 40.8073 163.115 41.3073 163.344 41.7344V42H158.422C158.193 41.5104 158.021 40.9062 157.906 40.1875C157.792 39.4583 157.734 38.7188 157.734 37.9688ZM158.344 31.6875L158.375 34.375H155.953C155.411 34.375 154.943 34.4427 154.547 34.5781C154.161 34.7135 153.849 34.901 153.609 35.1406C153.37 35.3698 153.193 35.6406 153.078 35.9531C152.974 36.2552 152.922 36.5885 152.922 36.9531C152.922 37.2969 153.005 37.6094 153.172 37.8906C153.339 38.1615 153.568 38.375 153.859 38.5312C154.151 38.6875 154.49 38.7656 154.875 38.7656C155.51 38.7656 156.052 38.6406 156.5 38.3906C156.958 38.1406 157.312 37.8385 157.562 37.4844C157.812 37.1198 157.938 36.7812 157.938 36.4688L159.109 38.5C158.922 38.9167 158.693 39.349 158.422 39.7969C158.151 40.2344 157.807 40.6458 157.391 41.0312C156.974 41.4062 156.469 41.7135 155.875 41.9531C155.292 42.1927 154.589 42.3125 153.766 42.3125C152.703 42.3125 151.74 42.099 150.875 41.6719C150.01 41.2344 149.318 40.6354 148.797 39.875C148.286 39.1146 148.031 38.2396 148.031 37.25C148.031 36.3646 148.193 35.5781 148.516 34.8906C148.839 34.2031 149.323 33.6198 149.969 33.1406C150.625 32.6615 151.448 32.3021 152.438 32.0625C153.427 31.8125 154.583 31.6875 155.906 31.6875H158.344ZM174.438 25.0938V28.5156H164.406V25.0938H174.438ZM166.703 20.9062H171.594V36.7031C171.594 37.1719 171.651 37.5312 171.766 37.7812C171.88 38.0312 172.068 38.2083 172.328 38.3125C172.589 38.4062 172.922 38.4531 173.328 38.4531C173.62 38.4531 173.87 38.4427 174.078 38.4219C174.286 38.401 174.479 38.375 174.656 38.3438V41.875C174.24 42.0104 173.797 42.1146 173.328 42.1875C172.859 42.2708 172.349 42.3125 171.797 42.3125C170.745 42.3125 169.833 42.1406 169.062 41.7969C168.302 41.4531 167.719 40.9115 167.312 40.1719C166.906 39.4219 166.703 38.4479 166.703 37.25V20.9062ZM184.75 42.3125C183.406 42.3125 182.203 42.099 181.141 41.6719C180.078 41.2448 179.177 40.6562 178.438 39.9062C177.708 39.1458 177.151 38.2708 176.766 37.2812C176.38 36.2917 176.188 35.2344 176.188 34.1094V33.5156C176.188 32.2552 176.365 31.0938 176.719 30.0312C177.073 28.9688 177.589 28.0469 178.266 27.2656C178.953 26.474 179.797 25.8646 180.797 25.4375C181.797 25 182.938 24.7812 184.219 24.7812C185.417 24.7812 186.484 24.9792 187.422 25.375C188.359 25.7604 189.151 26.3177 189.797 27.0469C190.443 27.7656 190.932 28.6354 191.266 29.6562C191.609 30.6667 191.781 31.8021 191.781 33.0625V35.0625H178.156V31.9219H187V31.5469C187 30.9531 186.891 30.4323 186.672 29.9844C186.464 29.5365 186.151 29.1927 185.734 28.9531C185.328 28.7031 184.812 28.5781 184.188 28.5781C183.594 28.5781 183.099 28.7031 182.703 28.9531C182.307 29.2031 181.99 29.5573 181.75 30.0156C181.521 30.4635 181.354 30.9896 181.25 31.5938C181.146 32.1875 181.094 32.8281 181.094 33.5156V34.1094C181.094 34.7656 181.182 35.3646 181.359 35.9062C181.536 36.4479 181.797 36.9115 182.141 37.2969C182.484 37.6823 182.901 37.9844 183.391 38.2031C183.88 38.4219 184.438 38.5312 185.062 38.5312C185.833 38.5312 186.568 38.3854 187.266 38.0938C187.964 37.7917 188.568 37.3229 189.078 36.6875L191.359 39.2969C191.016 39.7969 190.531 40.2812 189.906 40.75C189.292 41.2083 188.552 41.5833 187.688 41.875C186.823 42.1667 185.844 42.3125 184.75 42.3125ZM211.078 37.9688V30.7188C211.078 30.2083 211 29.7708 210.844 29.4062C210.688 29.0417 210.443 28.7552 210.109 28.5469C209.776 28.3385 209.344 28.2344 208.812 28.2344C208.365 28.2344 207.974 28.3125 207.641 28.4688C207.318 28.625 207.068 28.849 206.891 29.1406C206.724 29.4323 206.641 29.7917 206.641 30.2188H201.766C201.766 29.4583 201.938 28.75 202.281 28.0938C202.625 27.4375 203.115 26.8594 203.75 26.3594C204.396 25.8594 205.167 25.474 206.062 25.2031C206.958 24.9219 207.964 24.7812 209.078 24.7812C210.401 24.7812 211.578 25.0052 212.609 25.4531C213.651 25.8906 214.474 26.5521 215.078 27.4375C215.682 28.3125 215.984 29.4167 215.984 30.75V37.8281C215.984 38.849 216.042 39.651 216.156 40.2344C216.281 40.8073 216.458 41.3073 216.688 41.7344V42H211.766C211.536 41.5104 211.365 40.9062 211.25 40.1875C211.135 39.4583 211.078 38.7188 211.078 37.9688ZM211.688 31.6875L211.719 34.375H209.297C208.755 34.375 208.286 34.4427 207.891 34.5781C207.505 34.7135 207.193 34.901 206.953 35.1406C206.714 35.3698 206.536 35.6406 206.422 35.9531C206.318 36.2552 206.266 36.5885 206.266 36.9531C206.266 37.2969 206.349 37.6094 206.516 37.8906C206.682 38.1615 206.911 38.375 207.203 38.5312C207.495 38.6875 207.833 38.7656 208.219 38.7656C208.854 38.7656 209.396 38.6406 209.844 38.3906C210.302 38.1406 210.656 37.8385 210.906 37.4844C211.156 37.1198 211.281 36.7812 211.281 36.4688L212.453 38.5C212.266 38.9167 212.036 39.349 211.766 39.7969C211.495 40.2344 211.151 40.6458 210.734 41.0312C210.318 41.4062 209.812 41.7135 209.219 41.9531C208.635 42.1927 207.932 42.3125 207.109 42.3125C206.047 42.3125 205.083 42.099 204.219 41.6719C203.354 41.2344 202.661 40.6354 202.141 39.875C201.63 39.1146 201.375 38.2396 201.375 37.25C201.375 36.3646 201.536 35.5781 201.859 34.8906C202.182 34.2031 202.667 33.6198 203.312 33.1406C203.969 32.6615 204.792 32.3021 205.781 32.0625C206.771 31.8125 207.927 31.6875 209.25 31.6875H211.688ZM223.969 28.7031V42H219.078V25.0938H223.672L223.969 28.7031ZM223.328 32.9531L222.109 32.9844C222.109 31.7135 222.266 30.5729 222.578 29.5625C222.891 28.5521 223.333 27.6927 223.906 26.9844C224.49 26.2656 225.182 25.7188 225.984 25.3438C226.797 24.9688 227.693 24.7812 228.672 24.7812C229.464 24.7812 230.188 24.8958 230.844 25.125C231.5 25.3542 232.062 25.724 232.531 26.2344C233.01 26.7344 233.375 27.401 233.625 28.2344C233.875 29.0573 234 30.0729 234 31.2812V42H229.094V31.2656C229.094 30.5573 228.995 30.0104 228.797 29.625C228.599 29.2396 228.307 28.9688 227.922 28.8125C227.547 28.6562 227.089 28.5781 226.547 28.5781C225.974 28.5781 225.484 28.6927 225.078 28.9219C224.672 29.1406 224.339 29.4479 224.078 29.8438C223.818 30.2396 223.625 30.7031 223.5 31.2344C223.385 31.7656 223.328 32.3385 223.328 32.9531ZM254.859 23.5781L248.984 42H243.547L251.969 19.25H255.406L254.859 23.5781ZM259.734 42L253.844 23.5781L253.234 19.25H256.719L265.172 42H259.734ZM259.484 33.5312V37.4688H247.625V33.5312H259.484ZM271.703 29.0312V42H266.828V25.0938H271.406L271.703 29.0312ZM276.75 24.9688L276.672 29.5156C276.464 29.4844 276.193 29.4583 275.859 29.4375C275.526 29.4062 275.24 29.3906 275 29.3906C274.375 29.3906 273.833 29.4688 273.375 29.625C272.927 29.7708 272.552 29.9896 272.25 30.2812C271.958 30.5729 271.74 30.9375 271.594 31.375C271.448 31.8021 271.375 32.2969 271.375 32.8594L270.453 32.4062C270.453 31.2917 270.562 30.2708 270.781 29.3438C271 28.4167 271.318 27.6146 271.734 26.9375C272.151 26.25 272.661 25.7188 273.266 25.3438C273.87 24.9688 274.557 24.7812 275.328 24.7812C275.578 24.7812 275.833 24.7969 276.094 24.8281C276.354 24.8594 276.573 24.9062 276.75 24.9688ZM288.125 25.0938V28.5156H278.094V25.0938H288.125ZM280.391 20.9062H285.281V36.7031C285.281 37.1719 285.339 37.5312 285.453 37.7812C285.568 38.0312 285.755 38.2083 286.016 38.3125C286.276 38.4062 286.609 38.4531 287.016 38.4531C287.307 38.4531 287.557 38.4427 287.766 38.4219C287.974 38.401 288.167 38.375 288.344 38.3438V41.875C287.927 42.0104 287.484 42.1146 287.016 42.1875C286.547 42.2708 286.036 42.3125 285.484 42.3125C284.432 42.3125 283.521 42.1406 282.75 41.7969C281.99 41.4531 281.406 40.9115 281 40.1719C280.594 39.4219 280.391 38.4479 280.391 37.25V20.9062Z" fill="white"/>
<defs>
<linearGradient id="paint0_linear_36_2136" x1="350.129" y1="62" x2="94.0352" y2="-126.939" gradientUnits="userSpaceOnUse">
<stop stop-color="#9100C5"/>
<stop offset="1" stop-color="#6A95EA"/>
</linearGradient>
</defs>
</svg>
