<svg width="211" height="43" viewBox="0 0 211 43" fill="none" xmlns="http://www.w3.org/2000/svg">
<rect x="1.5" y="1.5" width="208" height="40" rx="18.5" stroke="url(#paint0_linear_47_2022)" stroke-width="3"/>
<path d="M60.2812 21.2344V30.0938C59.9479 30.5208 59.4219 30.9844 58.7031 31.4844C57.9948 31.9844 57.0677 32.4167 55.9219 32.7812C54.776 33.1354 53.3698 33.3125 51.7031 33.3125C50.2552 33.3125 48.9323 33.0729 47.7344 32.5938C46.5365 32.1042 45.5052 31.3906 44.6406 30.4531C43.776 29.5156 43.1094 28.3698 42.6406 27.0156C42.1719 25.6615 41.9375 24.1146 41.9375 22.375V20.875C41.9375 19.1354 42.1562 17.5885 42.5938 16.2344C43.0417 14.8802 43.6771 13.7344 44.5 12.7969C45.3333 11.8594 46.3281 11.1458 47.4844 10.6562C48.651 10.1667 49.9531 9.92188 51.3906 9.92188C53.3177 9.92188 54.901 10.2396 56.1406 10.875C57.3906 11.5104 58.349 12.3854 59.0156 13.5C59.6823 14.6042 60.099 15.875 60.2656 17.3125H56.0781C55.9635 16.5208 55.7344 15.8281 55.3906 15.2344C55.0469 14.6302 54.5573 14.1615 53.9219 13.8281C53.2969 13.4844 52.4844 13.3125 51.4844 13.3125C50.6406 13.3125 49.8958 13.4792 49.25 13.8125C48.6042 14.1458 48.0625 14.6302 47.625 15.2656C47.1875 15.901 46.8542 16.6875 46.625 17.625C46.4062 18.5625 46.2969 19.6354 46.2969 20.8438V22.375C46.2969 23.5938 46.4219 24.6771 46.6719 25.625C46.9219 26.5625 47.2812 27.3542 47.75 28C48.2292 28.6354 48.8177 29.1198 49.5156 29.4531C50.224 29.776 51.026 29.9375 51.9219 29.9375C52.7344 29.9375 53.4062 29.8698 53.9375 29.7344C54.4792 29.5885 54.9115 29.4167 55.2344 29.2188C55.5573 29.0208 55.8073 28.8281 55.9844 28.6406V24.375H51.4688V21.2344H60.2812ZM71.625 33.3125C70.3438 33.3125 69.1927 33.1042 68.1719 32.6875C67.151 32.2708 66.2812 31.6927 65.5625 30.9531C64.8542 30.2031 64.3073 29.3333 63.9219 28.3438C63.5469 27.3438 63.3594 26.2708 63.3594 25.125V24.5C63.3594 23.1979 63.5469 22.0156 63.9219 20.9531C64.2969 19.8802 64.8281 18.9583 65.5156 18.1875C66.2031 17.4167 67.026 16.8229 67.9844 16.4062C68.9427 15.9896 70 15.7812 71.1562 15.7812C72.3542 15.7812 73.4115 15.9844 74.3281 16.3906C75.2448 16.7865 76.0104 17.349 76.625 18.0781C77.2396 18.8073 77.7031 19.6823 78.0156 20.7031C78.3281 21.7135 78.4844 22.8333 78.4844 24.0625V25.7969H65.2344V22.9531H74.4219V22.6406C74.401 21.9844 74.276 21.3854 74.0469 20.8438C73.8177 20.2917 73.4635 19.8542 72.9844 19.5312C72.5052 19.1979 71.8854 19.0312 71.125 19.0312C70.5104 19.0312 69.974 19.1667 69.5156 19.4375C69.0677 19.6979 68.6927 20.0729 68.3906 20.5625C68.099 21.0417 67.8802 21.6146 67.7344 22.2812C67.5885 22.9479 67.5156 23.6875 67.5156 24.5V25.125C67.5156 25.8333 67.6094 26.4896 67.7969 27.0938C67.9948 27.6979 68.2812 28.224 68.6562 28.6719C69.0417 29.1094 69.5 29.4531 70.0312 29.7031C70.5729 29.9427 71.1875 30.0625 71.875 30.0625C72.7396 30.0625 73.5208 29.8958 74.2188 29.5625C74.9271 29.2188 75.5417 28.7135 76.0625 28.0469L78.1406 30.2031C77.7865 30.724 77.3073 31.224 76.7031 31.7031C76.1094 32.1823 75.3906 32.5729 74.5469 32.875C73.7031 33.1667 72.7292 33.3125 71.625 33.3125ZM85.2969 19.7031V33H81.1719V16.0938H85.0469L85.2969 19.7031ZM84.6406 23.9375H83.4219C83.4323 22.7083 83.599 21.5938 83.9219 20.5938C84.2448 19.5938 84.6979 18.7344 85.2812 18.0156C85.875 17.2969 86.5781 16.7448 87.3906 16.3594C88.2031 15.974 89.1094 15.7812 90.1094 15.7812C90.9219 15.7812 91.6562 15.8958 92.3125 16.125C92.9688 16.3542 93.5312 16.7188 94 17.2188C94.4792 17.7188 94.8438 18.375 95.0938 19.1875C95.3542 19.9896 95.4844 20.9792 95.4844 22.1562V33H91.3281V22.125C91.3281 21.3542 91.2135 20.7448 90.9844 20.2969C90.7656 19.849 90.4427 19.5312 90.0156 19.3438C89.599 19.1562 89.0833 19.0625 88.4688 19.0625C87.8333 19.0625 87.276 19.1927 86.7969 19.4531C86.3281 19.7031 85.9323 20.0521 85.6094 20.5C85.2969 20.9479 85.0573 21.4635 84.8906 22.0469C84.724 22.6302 84.6406 23.2604 84.6406 23.9375ZM106.719 33.3125C105.438 33.3125 104.286 33.1042 103.266 32.6875C102.245 32.2708 101.375 31.6927 100.656 30.9531C99.9479 30.2031 99.401 29.3333 99.0156 28.3438C98.6406 27.3438 98.4531 26.2708 98.4531 25.125V24.5C98.4531 23.1979 98.6406 22.0156 99.0156 20.9531C99.3906 19.8802 99.9219 18.9583 100.609 18.1875C101.297 17.4167 102.12 16.8229 103.078 16.4062C104.036 15.9896 105.094 15.7812 106.25 15.7812C107.448 15.7812 108.505 15.9844 109.422 16.3906C110.339 16.7865 111.104 17.349 111.719 18.0781C112.333 18.8073 112.797 19.6823 113.109 20.7031C113.422 21.7135 113.578 22.8333 113.578 24.0625V25.7969H100.328V22.9531H109.516V22.6406C109.495 21.9844 109.37 21.3854 109.141 20.8438C108.911 20.2917 108.557 19.8542 108.078 19.5312C107.599 19.1979 106.979 19.0312 106.219 19.0312C105.604 19.0312 105.068 19.1667 104.609 19.4375C104.161 19.6979 103.786 20.0729 103.484 20.5625C103.193 21.0417 102.974 21.6146 102.828 22.2812C102.682 22.9479 102.609 23.6875 102.609 24.5V25.125C102.609 25.8333 102.703 26.4896 102.891 27.0938C103.089 27.6979 103.375 28.224 103.75 28.6719C104.135 29.1094 104.594 29.4531 105.125 29.7031C105.667 29.9427 106.281 30.0625 106.969 30.0625C107.833 30.0625 108.615 29.8958 109.312 29.5625C110.021 29.2188 110.635 28.7135 111.156 28.0469L113.234 30.2031C112.88 30.724 112.401 31.224 111.797 31.7031C111.203 32.1823 110.484 32.5729 109.641 32.875C108.797 33.1667 107.823 33.3125 106.719 33.3125ZM120.469 19.5469V33H116.344V16.0938H120.25L120.469 19.5469ZM125.609 15.9844L125.547 19.8281C125.318 19.7865 125.057 19.7552 124.766 19.7344C124.484 19.7135 124.219 19.7031 123.969 19.7031C123.333 19.7031 122.776 19.7917 122.297 19.9688C121.818 20.1354 121.417 20.3802 121.094 20.7031C120.781 21.026 120.542 21.4219 120.375 21.8906C120.208 22.349 120.115 22.8698 120.094 23.4531L119.203 23.3438C119.203 22.2708 119.312 21.276 119.531 20.3594C119.75 19.4427 120.068 18.6406 120.484 17.9531C120.901 17.2656 121.422 16.7344 122.047 16.3594C122.682 15.974 123.411 15.7812 124.234 15.7812C124.464 15.7812 124.708 15.8021 124.969 15.8438C125.24 15.875 125.453 15.9219 125.609 15.9844ZM136.656 29.4062V21.6094C136.656 21.0365 136.557 20.5417 136.359 20.125C136.161 19.7083 135.859 19.3854 135.453 19.1562C135.047 18.9271 134.531 18.8125 133.906 18.8125C133.354 18.8125 132.87 18.9062 132.453 19.0938C132.047 19.2812 131.734 19.5469 131.516 19.8906C131.297 20.224 131.188 20.6094 131.188 21.0469H127.047C127.047 20.349 127.214 19.6875 127.547 19.0625C127.88 18.4271 128.354 17.8646 128.969 17.375C129.594 16.875 130.339 16.4844 131.203 16.2031C132.078 15.9219 133.057 15.7812 134.141 15.7812C135.422 15.7812 136.562 16 137.562 16.4375C138.573 16.8646 139.365 17.5104 139.938 18.375C140.521 19.2396 140.812 20.3281 140.812 21.6406V29.0156C140.812 29.8594 140.865 30.5833 140.969 31.1875C141.083 31.7812 141.25 32.2969 141.469 32.7344V33H137.266C137.068 32.5729 136.917 32.0312 136.812 31.375C136.708 30.7083 136.656 30.0521 136.656 29.4062ZM137.234 22.7031L137.266 25.1562H134.656C134.01 25.1562 133.443 25.224 132.953 25.3594C132.464 25.4844 132.062 25.6719 131.75 25.9219C131.438 26.1615 131.203 26.4531 131.047 26.7969C130.891 27.1302 130.812 27.5104 130.812 27.9375C130.812 28.3542 130.906 28.7292 131.094 29.0625C131.292 29.3958 131.573 29.6615 131.938 29.8594C132.312 30.0469 132.75 30.1406 133.25 30.1406C133.979 30.1406 134.615 29.9948 135.156 29.7031C135.698 29.401 136.12 29.0365 136.422 28.6094C136.724 28.1823 136.885 27.776 136.906 27.3906L138.094 29.1719C137.948 29.599 137.729 30.0521 137.438 30.5312C137.146 31.0104 136.771 31.4583 136.312 31.875C135.854 32.2917 135.302 32.6354 134.656 32.9062C134.01 33.1771 133.26 33.3125 132.406 33.3125C131.312 33.3125 130.333 33.0938 129.469 32.6562C128.604 32.2188 127.922 31.6198 127.422 30.8594C126.922 30.099 126.672 29.2344 126.672 28.2656C126.672 27.3698 126.839 26.5781 127.172 25.8906C127.505 25.2031 128 24.625 128.656 24.1562C129.312 23.6771 130.125 23.3177 131.094 23.0781C132.073 22.8281 133.193 22.7031 134.453 22.7031H137.234ZM152.531 16.0938V19.0625H142.844V16.0938H152.531ZM145.438 11.9375H149.578V28.125C149.578 28.625 149.646 29.0104 149.781 29.2812C149.917 29.5521 150.12 29.7344 150.391 29.8281C150.661 29.9219 150.984 29.9688 151.359 29.9688C151.63 29.9688 151.88 29.9531 152.109 29.9219C152.339 29.8906 152.531 29.8594 152.688 29.8281L152.703 32.9219C152.359 33.0365 151.969 33.1302 151.531 33.2031C151.104 33.276 150.62 33.3125 150.078 33.3125C149.151 33.3125 148.339 33.1562 147.641 32.8438C146.943 32.5208 146.401 32.0052 146.016 31.2969C145.63 30.5781 145.438 29.6302 145.438 28.4531V11.9375ZM162.875 33.3125C161.594 33.3125 160.443 33.1042 159.422 32.6875C158.401 32.2708 157.531 31.6927 156.812 30.9531C156.104 30.2031 155.557 29.3333 155.172 28.3438C154.797 27.3438 154.609 26.2708 154.609 25.125V24.5C154.609 23.1979 154.797 22.0156 155.172 20.9531C155.547 19.8802 156.078 18.9583 156.766 18.1875C157.453 17.4167 158.276 16.8229 159.234 16.4062C160.193 15.9896 161.25 15.7812 162.406 15.7812C163.604 15.7812 164.661 15.9844 165.578 16.3906C166.495 16.7865 167.26 17.349 167.875 18.0781C168.49 18.8073 168.953 19.6823 169.266 20.7031C169.578 21.7135 169.734 22.8333 169.734 24.0625V25.7969H156.484V22.9531H165.672V22.6406C165.651 21.9844 165.526 21.3854 165.297 20.8438C165.068 20.2917 164.714 19.8542 164.234 19.5312C163.755 19.1979 163.135 19.0312 162.375 19.0312C161.76 19.0312 161.224 19.1667 160.766 19.4375C160.318 19.6979 159.943 20.0729 159.641 20.5625C159.349 21.0417 159.13 21.6146 158.984 22.2812C158.839 22.9479 158.766 23.6875 158.766 24.5V25.125C158.766 25.8333 158.859 26.4896 159.047 27.0938C159.245 27.6979 159.531 28.224 159.906 28.6719C160.292 29.1094 160.75 29.4531 161.281 29.7031C161.823 29.9427 162.438 30.0625 163.125 30.0625C163.99 30.0625 164.771 29.8958 165.469 29.5625C166.177 29.2188 166.792 28.7135 167.312 28.0469L169.391 30.2031C169.036 30.724 168.557 31.224 167.953 31.7031C167.359 32.1823 166.641 32.5729 165.797 32.875C164.953 33.1667 163.979 33.3125 162.875 33.3125Z" fill="black"/>
<defs>
<linearGradient id="paint0_linear_47_2022" x1="211.078" y1="43" x2="42.1351" y2="-65.3425" gradientUnits="userSpaceOnUse">
<stop stop-color="#9100C5"/>
<stop offset="1" stop-color="#6A95EA"/>
</linearGradient>
</defs>
</svg>
