<svg width="36" height="36" viewBox="0 0 36 36" fill="none" xmlns="http://www.w3.org/2000/svg">
<path d="M29.25 30.0938V27.2812C29.25 25.7894 28.6574 24.3587 27.6025 23.3038C26.5476 22.2489 25.1168 21.6563 23.625 21.6562H12.375C10.8832 21.6563 9.45242 22.2489 8.39752 23.3038C7.34263 24.3587 6.75 25.7894 6.75 27.2812V30.0938" stroke="black" stroke-width="2" stroke-linecap="round" stroke-linejoin="round"/>
<path d="M18 16.875C21.1066 16.875 23.625 14.3566 23.625 11.25C23.625 8.1434 21.1066 5.625 18 5.625C14.8934 5.625 12.375 8.1434 12.375 11.25C12.375 14.3566 14.8934 16.875 18 16.875Z" stroke="black" stroke-width="2" stroke-linecap="round" stroke-linejoin="round"/>
<circle cx="18" cy="18" r="17" stroke="black" stroke-width="2"/>
</svg>
