<svg width="455" height="163" viewBox="0 0 455 163" fill="none" xmlns="http://www.w3.org/2000/svg">
<path d="M12.1406 1.125V58H4.60156V1.125H12.1406ZM35.9688 26.7109V32.8828H10.5V26.7109H35.9688ZM39.8359 1.125V7.29688H10.5V1.125H39.8359ZM72.7266 48.2344V15.7344H79.9922V58H73.0781L72.7266 48.2344ZM74.0938 39.3281L77.1016 39.25C77.1016 42.0625 76.8021 44.6667 76.2031 47.0625C75.6302 49.4323 74.6927 51.4896 73.3906 53.2344C72.0885 54.9792 70.3828 56.3464 68.2734 57.3359C66.1641 58.2995 63.599 58.7812 60.5781 58.7812C58.5208 58.7812 56.6328 58.4818 54.9141 57.8828C53.2214 57.2839 51.763 56.3594 50.5391 55.1094C49.3151 53.8594 48.3646 52.2318 47.6875 50.2266C47.0365 48.2214 46.7109 45.8125 46.7109 43V15.7344H53.9375V43.0781C53.9375 44.9792 54.1458 46.5547 54.5625 47.8047C55.0052 49.0286 55.5911 50.0052 56.3203 50.7344C57.0755 51.4375 57.9089 51.9323 58.8203 52.2188C59.7578 52.5052 60.7214 52.6484 61.7109 52.6484C64.7839 52.6484 67.2188 52.0625 69.0156 50.8906C70.8125 49.6927 72.1016 48.0911 72.8828 46.0859C73.6901 44.0547 74.0938 41.8021 74.0938 39.3281ZM108.703 15.7344V21.2812H85.8516V15.7344H108.703ZM93.5859 5.46094H100.812V47.5312C100.812 48.9635 101.034 50.0443 101.477 50.7734C101.919 51.5026 102.492 51.9844 103.195 52.2188C103.898 52.4531 104.654 52.5703 105.461 52.5703C106.06 52.5703 106.685 52.5182 107.336 52.4141C108.013 52.2839 108.521 52.1797 108.859 52.1016L108.898 58C108.326 58.1823 107.57 58.3516 106.633 58.5078C105.721 58.6901 104.615 58.7812 103.312 58.7812C101.542 58.7812 99.9141 58.4297 98.4297 57.7266C96.9453 57.0234 95.7604 55.8516 94.875 54.2109C94.0156 52.5443 93.5859 50.3047 93.5859 47.4922V5.46094ZM143.039 48.2344V15.7344H150.305V58H143.391L143.039 48.2344ZM144.406 39.3281L147.414 39.25C147.414 42.0625 147.115 44.6667 146.516 47.0625C145.943 49.4323 145.005 51.4896 143.703 53.2344C142.401 54.9792 140.695 56.3464 138.586 57.3359C136.477 58.2995 133.911 58.7812 130.891 58.7812C128.833 58.7812 126.945 58.4818 125.227 57.8828C123.534 57.2839 122.076 56.3594 120.852 55.1094C119.628 53.8594 118.677 52.2318 118 50.2266C117.349 48.2214 117.023 45.8125 117.023 43V15.7344H124.25V43.0781C124.25 44.9792 124.458 46.5547 124.875 47.8047C125.318 49.0286 125.904 50.0052 126.633 50.7344C127.388 51.4375 128.221 51.9323 129.133 52.2188C130.07 52.5052 131.034 52.6484 132.023 52.6484C135.096 52.6484 137.531 52.0625 139.328 50.8906C141.125 49.6927 142.414 48.0911 143.195 46.0859C144.003 44.0547 144.406 41.8021 144.406 39.3281ZM168.547 22.375V58H161.32V15.7344H168.352L168.547 22.375ZM181.75 15.5L181.711 22.2188C181.112 22.0885 180.539 22.0104 179.992 21.9844C179.471 21.9323 178.872 21.9062 178.195 21.9062C176.529 21.9062 175.057 22.1667 173.781 22.6875C172.505 23.2083 171.424 23.9375 170.539 24.875C169.654 25.8125 168.951 26.9323 168.43 28.2344C167.935 29.5104 167.609 30.9167 167.453 32.4531L165.422 33.625C165.422 31.0729 165.669 28.6771 166.164 26.4375C166.685 24.1979 167.479 22.2188 168.547 20.5C169.615 18.7552 170.969 17.401 172.609 16.4375C174.276 15.4479 176.255 14.9531 178.547 14.9531C179.068 14.9531 179.667 15.0182 180.344 15.1484C181.021 15.2526 181.49 15.3698 181.75 15.5ZM205.188 58.7812C202.245 58.7812 199.576 58.2865 197.18 57.2969C194.81 56.2812 192.766 54.862 191.047 53.0391C189.354 51.2161 188.052 49.0547 187.141 46.5547C186.229 44.0547 185.773 41.3203 185.773 38.3516V36.7109C185.773 33.2734 186.281 30.2135 187.297 27.5312C188.312 24.8229 189.693 22.5312 191.438 20.6562C193.182 18.7812 195.161 17.362 197.375 16.3984C199.589 15.4349 201.88 14.9531 204.25 14.9531C207.271 14.9531 209.875 15.474 212.062 16.5156C214.276 17.5573 216.086 19.0156 217.492 20.8906C218.898 22.7396 219.94 24.9271 220.617 27.4531C221.294 29.9531 221.633 32.6875 221.633 35.6562V38.8984H190.07V33H214.406V32.4531C214.302 30.5781 213.911 28.7552 213.234 26.9844C212.583 25.2135 211.542 23.7552 210.109 22.6094C208.677 21.4635 206.724 20.8906 204.25 20.8906C202.609 20.8906 201.099 21.2422 199.719 21.9453C198.339 22.6224 197.154 23.638 196.164 24.9922C195.174 26.3464 194.406 28 193.859 29.9531C193.312 31.9062 193.039 34.1589 193.039 36.7109V38.3516C193.039 40.3568 193.312 42.2448 193.859 44.0156C194.432 45.7604 195.253 47.2969 196.32 48.625C197.414 49.9531 198.729 50.9948 200.266 51.75C201.828 52.5052 203.599 52.8828 205.578 52.8828C208.13 52.8828 210.292 52.362 212.062 51.3203C213.833 50.2786 215.383 48.8854 216.711 47.1406L221.086 50.6172C220.174 51.9974 219.016 53.3125 217.609 54.5625C216.203 55.8125 214.471 56.8281 212.414 57.6094C210.383 58.3906 207.974 58.7812 205.188 58.7812ZM281.32 43.625C281.32 42.2969 281.112 41.125 280.695 40.1094C280.305 39.0677 279.602 38.1302 278.586 37.2969C277.596 36.4635 276.216 35.6693 274.445 34.9141C272.701 34.1589 270.487 33.3906 267.805 32.6094C264.992 31.776 262.453 30.8516 260.188 29.8359C257.922 28.7943 255.982 27.6094 254.367 26.2812C252.753 24.9531 251.516 23.4297 250.656 21.7109C249.797 19.9922 249.367 18.026 249.367 15.8125C249.367 13.599 249.823 11.5547 250.734 9.67969C251.646 7.80469 252.948 6.17708 254.641 4.79688C256.359 3.39062 258.404 2.29688 260.773 1.51562C263.143 0.734375 265.786 0.34375 268.703 0.34375C272.974 0.34375 276.594 1.16406 279.562 2.80469C282.557 4.41927 284.836 6.54167 286.398 9.17188C287.961 11.776 288.742 14.5625 288.742 17.5312H281.242C281.242 15.3958 280.786 13.5078 279.875 11.8672C278.964 10.2005 277.583 8.89844 275.734 7.96094C273.885 6.9974 271.542 6.51562 268.703 6.51562C266.021 6.51562 263.807 6.91927 262.062 7.72656C260.318 8.53385 259.016 9.6276 258.156 11.0078C257.323 12.388 256.906 13.9635 256.906 15.7344C256.906 16.9323 257.154 18.026 257.648 19.0156C258.169 19.9792 258.964 20.8776 260.031 21.7109C261.125 22.5443 262.505 23.3125 264.172 24.0156C265.865 24.7188 267.883 25.3958 270.227 26.0469C273.456 26.9583 276.242 27.974 278.586 29.0938C280.93 30.2135 282.857 31.4766 284.367 32.8828C285.904 34.263 287.036 35.8385 287.766 37.6094C288.521 39.3542 288.898 41.3333 288.898 43.5469C288.898 45.8646 288.43 47.9609 287.492 49.8359C286.555 51.7109 285.214 53.3125 283.469 54.6406C281.724 55.9688 279.628 56.9974 277.18 57.7266C274.758 58.4297 272.049 58.7812 269.055 58.7812C266.424 58.7812 263.833 58.4167 261.281 57.6875C258.755 56.9583 256.451 55.8646 254.367 54.4062C252.31 52.9479 250.656 51.151 249.406 49.0156C248.182 46.8542 247.57 44.3542 247.57 41.5156H255.07C255.07 43.4688 255.448 45.1484 256.203 46.5547C256.958 47.9349 257.987 49.0807 259.289 49.9922C260.617 50.9036 262.115 51.5807 263.781 52.0234C265.474 52.4401 267.232 52.6484 269.055 52.6484C271.685 52.6484 273.911 52.2839 275.734 51.5547C277.557 50.8255 278.938 49.7839 279.875 48.4297C280.839 47.0755 281.32 45.474 281.32 43.625ZM315.109 15.7344V21.2812H292.258V15.7344H315.109ZM299.992 5.46094H307.219V47.5312C307.219 48.9635 307.44 50.0443 307.883 50.7734C308.326 51.5026 308.898 51.9844 309.602 52.2188C310.305 52.4531 311.06 52.5703 311.867 52.5703C312.466 52.5703 313.091 52.5182 313.742 52.4141C314.419 52.2839 314.927 52.1797 315.266 52.1016L315.305 58C314.732 58.1823 313.977 58.3516 313.039 58.5078C312.128 58.6901 311.021 58.7812 309.719 58.7812C307.948 58.7812 306.32 58.4297 304.836 57.7266C303.352 57.0234 302.167 55.8516 301.281 54.2109C300.422 52.5443 299.992 50.3047 299.992 47.4922V5.46094ZM348.508 50.7734V29.0156C348.508 27.349 348.169 25.9036 347.492 24.6797C346.841 23.4297 345.852 22.4661 344.523 21.7891C343.195 21.112 341.555 20.7734 339.602 20.7734C337.779 20.7734 336.177 21.0859 334.797 21.7109C333.443 22.3359 332.375 23.1562 331.594 24.1719C330.839 25.1875 330.461 26.2812 330.461 27.4531H323.234C323.234 25.9427 323.625 24.4453 324.406 22.9609C325.188 21.4766 326.307 20.1354 327.766 18.9375C329.25 17.7135 331.021 16.75 333.078 16.0469C335.161 15.3177 337.479 14.9531 340.031 14.9531C343.104 14.9531 345.812 15.474 348.156 16.5156C350.526 17.5573 352.375 19.1328 353.703 21.2422C355.057 23.3255 355.734 25.9427 355.734 29.0938V48.7812C355.734 50.1875 355.852 51.6849 356.086 53.2734C356.346 54.862 356.724 56.2292 357.219 57.375V58H349.68C349.315 57.1667 349.029 56.0599 348.82 54.6797C348.612 53.2734 348.508 51.9714 348.508 50.7734ZM349.758 32.375L349.836 37.4531H342.531C340.474 37.4531 338.638 37.6224 337.023 37.9609C335.409 38.2734 334.055 38.7552 332.961 39.4062C331.867 40.0573 331.034 40.8776 330.461 41.8672C329.888 42.8307 329.602 43.9635 329.602 45.2656C329.602 46.5938 329.901 47.8047 330.5 48.8984C331.099 49.9922 331.997 50.8646 333.195 51.5156C334.419 52.1406 335.917 52.4531 337.688 52.4531C339.901 52.4531 341.854 51.9844 343.547 51.0469C345.24 50.1094 346.581 48.9635 347.57 47.6094C348.586 46.2552 349.133 44.9401 349.211 43.6641L352.297 47.1406C352.115 48.2344 351.62 49.4453 350.812 50.7734C350.005 52.1016 348.924 53.3776 347.57 54.6016C346.242 55.7995 344.654 56.8021 342.805 57.6094C340.982 58.3906 338.924 58.7812 336.633 58.7812C333.768 58.7812 331.255 58.2214 329.094 57.1016C326.958 55.9818 325.292 54.4844 324.094 52.6094C322.922 50.7083 322.336 48.5859 322.336 46.2422C322.336 43.9766 322.779 41.9844 323.664 40.2656C324.549 38.5208 325.826 37.0755 327.492 35.9297C329.159 34.7578 331.164 33.8724 333.508 33.2734C335.852 32.6745 338.469 32.375 341.359 32.375H349.758ZM374.328 22.375V58H367.102V15.7344H374.133L374.328 22.375ZM387.531 15.5L387.492 22.2188C386.893 22.0885 386.32 22.0104 385.773 21.9844C385.253 21.9323 384.654 21.9062 383.977 21.9062C382.31 21.9062 380.839 22.1667 379.562 22.6875C378.286 23.2083 377.206 23.9375 376.32 24.875C375.435 25.8125 374.732 26.9323 374.211 28.2344C373.716 29.5104 373.391 30.9167 373.234 32.4531L371.203 33.625C371.203 31.0729 371.451 28.6771 371.945 26.4375C372.466 24.1979 373.26 22.2188 374.328 20.5C375.396 18.7552 376.75 17.401 378.391 16.4375C380.057 15.4479 382.036 14.9531 384.328 14.9531C384.849 14.9531 385.448 15.0182 386.125 15.1484C386.802 15.2526 387.271 15.3698 387.531 15.5ZM413.859 15.7344V21.2812H391.008V15.7344H413.859ZM398.742 5.46094H405.969V47.5312C405.969 48.9635 406.19 50.0443 406.633 50.7734C407.076 51.5026 407.648 51.9844 408.352 52.2188C409.055 52.4531 409.81 52.5703 410.617 52.5703C411.216 52.5703 411.841 52.5182 412.492 52.4141C413.169 52.2839 413.677 52.1797 414.016 52.1016L414.055 58C413.482 58.1823 412.727 58.3516 411.789 58.5078C410.878 58.6901 409.771 58.7812 408.469 58.7812C406.698 58.7812 405.07 58.4297 403.586 57.7266C402.102 57.0234 400.917 55.8516 400.031 54.2109C399.172 52.5443 398.742 50.3047 398.742 47.4922V5.46094ZM446.945 46.7891C446.945 45.7474 446.711 44.7839 446.242 43.8984C445.799 42.987 444.875 42.1667 443.469 41.4375C442.089 40.6823 440.005 40.0312 437.219 39.4844C434.875 38.9896 432.753 38.4036 430.852 37.7266C428.977 37.0495 427.375 36.2292 426.047 35.2656C424.745 34.3021 423.742 33.1693 423.039 31.8672C422.336 30.5651 421.984 29.0417 421.984 27.2969C421.984 25.6302 422.349 24.0547 423.078 22.5703C423.833 21.0859 424.888 19.7708 426.242 18.625C427.622 17.4792 429.276 16.5807 431.203 15.9297C433.13 15.2786 435.279 14.9531 437.648 14.9531C441.034 14.9531 443.924 15.5521 446.32 16.75C448.716 17.9479 450.552 19.5495 451.828 21.5547C453.104 23.5339 453.742 25.7344 453.742 28.1562H446.516C446.516 26.9844 446.164 25.8516 445.461 24.7578C444.784 23.638 443.781 22.7135 442.453 21.9844C441.151 21.2552 439.549 20.8906 437.648 20.8906C435.643 20.8906 434.016 21.2031 432.766 21.8281C431.542 22.4271 430.643 23.1953 430.07 24.1328C429.523 25.0703 429.25 26.0599 429.25 27.1016C429.25 27.8828 429.38 28.5859 429.641 29.2109C429.927 29.8099 430.422 30.3698 431.125 30.8906C431.828 31.3854 432.818 31.8542 434.094 32.2969C435.37 32.7396 436.997 33.1823 438.977 33.625C442.44 34.4062 445.292 35.3438 447.531 36.4375C449.771 37.5312 451.438 38.8724 452.531 40.4609C453.625 42.0495 454.172 43.9766 454.172 46.2422C454.172 48.0911 453.781 49.7839 453 51.3203C452.245 52.8568 451.138 54.1849 449.68 55.3047C448.247 56.3984 446.529 57.2578 444.523 57.8828C442.544 58.4818 440.318 58.7812 437.844 58.7812C434.12 58.7812 430.969 58.1172 428.391 56.7891C425.812 55.4609 423.859 53.7422 422.531 51.6328C421.203 49.5234 420.539 47.2969 420.539 44.9531H427.805C427.909 46.9323 428.482 48.5078 429.523 49.6797C430.565 50.8255 431.841 51.6458 433.352 52.1406C434.862 52.6094 436.359 52.8438 437.844 52.8438C439.823 52.8438 441.477 52.5833 442.805 52.0625C444.159 51.5417 445.188 50.8255 445.891 49.9141C446.594 49.0026 446.945 47.9609 446.945 46.7891ZM14.2891 162H7.0625V115.281C7.0625 112.234 7.60938 109.669 8.70312 107.586C9.82292 105.477 11.4245 103.888 13.5078 102.82C15.5911 101.727 18.0651 101.18 20.9297 101.18C21.763 101.18 22.5964 101.232 23.4297 101.336C24.2891 101.44 25.1224 101.596 25.9297 101.805L25.5391 107.703C24.9922 107.573 24.3672 107.482 23.6641 107.43C22.987 107.378 22.3099 107.352 21.6328 107.352C20.0964 107.352 18.7682 107.664 17.6484 108.289C16.5547 108.888 15.7214 109.773 15.1484 110.945C14.5755 112.117 14.2891 113.562 14.2891 115.281V162ZM23.2734 119.734V125.281H0.382812V119.734H23.2734ZM38.5469 126.375V162H31.3203V119.734H38.3516L38.5469 126.375ZM51.75 119.5L51.7109 126.219C51.112 126.089 50.5391 126.01 49.9922 125.984C49.4714 125.932 48.8724 125.906 48.1953 125.906C46.5286 125.906 45.0573 126.167 43.7812 126.688C42.5052 127.208 41.4245 127.938 40.5391 128.875C39.6536 129.812 38.9505 130.932 38.4297 132.234C37.9349 133.51 37.6094 134.917 37.4531 136.453L35.4219 137.625C35.4219 135.073 35.6693 132.677 36.1641 130.438C36.6849 128.198 37.4792 126.219 38.5469 124.5C39.6146 122.755 40.9688 121.401 42.6094 120.438C44.276 119.448 46.2552 118.953 48.5469 118.953C49.0677 118.953 49.6667 119.018 50.3438 119.148C51.0208 119.253 51.4896 119.37 51.75 119.5ZM55.7344 141.336V140.438C55.7344 137.391 56.1771 134.565 57.0625 131.961C57.9479 129.331 59.224 127.052 60.8906 125.125C62.5573 123.172 64.5755 121.661 66.9453 120.594C69.3151 119.5 71.9714 118.953 74.9141 118.953C77.8828 118.953 80.5521 119.5 82.9219 120.594C85.3177 121.661 87.349 123.172 89.0156 125.125C90.7083 127.052 91.9974 129.331 92.8828 131.961C93.7682 134.565 94.2109 137.391 94.2109 140.438V141.336C94.2109 144.383 93.7682 147.208 92.8828 149.812C91.9974 152.417 90.7083 154.695 89.0156 156.648C87.349 158.576 85.3307 160.086 82.9609 161.18C80.6172 162.247 77.9609 162.781 74.9922 162.781C72.0234 162.781 69.3542 162.247 66.9844 161.18C64.6146 160.086 62.5833 158.576 60.8906 156.648C59.224 154.695 57.9479 152.417 57.0625 149.812C56.1771 147.208 55.7344 144.383 55.7344 141.336ZM62.9609 140.438V141.336C62.9609 143.445 63.2083 145.438 63.7031 147.312C64.1979 149.161 64.9401 150.802 65.9297 152.234C66.9453 153.667 68.2083 154.799 69.7188 155.633C71.2292 156.44 72.987 156.844 74.9922 156.844C76.9714 156.844 78.7031 156.44 80.1875 155.633C81.6979 154.799 82.9479 153.667 83.9375 152.234C84.9271 150.802 85.6693 149.161 86.1641 147.312C86.6849 145.438 86.9453 143.445 86.9453 141.336V140.438C86.9453 138.354 86.6849 136.388 86.1641 134.539C85.6693 132.664 84.9141 131.01 83.8984 129.578C82.9089 128.12 81.6589 126.974 80.1484 126.141C78.6641 125.307 76.9193 124.891 74.9141 124.891C72.9349 124.891 71.1901 125.307 69.6797 126.141C68.1953 126.974 66.9453 128.12 65.9297 129.578C64.9401 131.01 64.1979 132.664 63.7031 134.539C63.2083 136.388 62.9609 138.354 62.9609 140.438ZM110.461 128.133V162H103.195V119.734H110.07L110.461 128.133ZM108.977 139.266L105.617 139.148C105.643 136.258 106.021 133.589 106.75 131.141C107.479 128.667 108.56 126.518 109.992 124.695C111.424 122.872 113.208 121.466 115.344 120.477C117.479 119.461 119.953 118.953 122.766 118.953C124.745 118.953 126.568 119.24 128.234 119.812C129.901 120.359 131.346 121.232 132.57 122.43C133.794 123.628 134.745 125.164 135.422 127.039C136.099 128.914 136.438 131.18 136.438 133.836V162H129.211V134.188C129.211 131.974 128.833 130.203 128.078 128.875C127.349 127.547 126.307 126.583 124.953 125.984C123.599 125.359 122.01 125.047 120.188 125.047C118.052 125.047 116.268 125.424 114.836 126.18C113.404 126.935 112.258 127.977 111.398 129.305C110.539 130.633 109.914 132.156 109.523 133.875C109.159 135.568 108.977 137.365 108.977 139.266ZM136.359 135.281L131.516 136.766C131.542 134.448 131.919 132.221 132.648 130.086C133.404 127.951 134.484 126.049 135.891 124.383C137.323 122.716 139.081 121.401 141.164 120.438C143.247 119.448 145.63 118.953 148.312 118.953C150.578 118.953 152.583 119.253 154.328 119.852C156.099 120.451 157.583 121.375 158.781 122.625C160.005 123.849 160.93 125.424 161.555 127.352C162.18 129.279 162.492 131.57 162.492 134.227V162H155.227V134.148C155.227 131.779 154.849 129.943 154.094 128.641C153.365 127.312 152.323 126.388 150.969 125.867C149.641 125.32 148.052 125.047 146.203 125.047C144.615 125.047 143.208 125.32 141.984 125.867C140.76 126.414 139.732 127.169 138.898 128.133C138.065 129.07 137.427 130.151 136.984 131.375C136.568 132.599 136.359 133.901 136.359 135.281Z" fill="white"/>
<path d="M230.773 128.289V137.43H201.086V128.289H230.773ZM204.562 105.125V162H192.844V105.125H204.562ZM239.133 105.125V162H227.453V105.125H239.133ZM268.078 162.781C264.797 162.781 261.854 162.26 259.25 161.219C256.646 160.151 254.432 158.68 252.609 156.805C250.812 154.93 249.432 152.755 248.469 150.281C247.505 147.781 247.023 145.125 247.023 142.312V140.75C247.023 137.547 247.479 134.617 248.391 131.961C249.302 129.305 250.604 127 252.297 125.047C254.016 123.094 256.099 121.596 258.547 120.555C260.995 119.487 263.755 118.953 266.828 118.953C269.823 118.953 272.479 119.448 274.797 120.438C277.115 121.427 279.055 122.833 280.617 124.656C282.206 126.479 283.404 128.667 284.211 131.219C285.018 133.745 285.422 136.557 285.422 139.656V144.344H251.828V136.844H274.367V135.984C274.367 134.422 274.081 133.029 273.508 131.805C272.961 130.555 272.128 129.565 271.008 128.836C269.888 128.107 268.456 127.742 266.711 127.742C265.227 127.742 263.951 128.068 262.883 128.719C261.815 129.37 260.943 130.281 260.266 131.453C259.615 132.625 259.12 134.005 258.781 135.594C258.469 137.156 258.312 138.875 258.312 140.75V142.312C258.312 144.005 258.547 145.568 259.016 147C259.51 148.432 260.201 149.669 261.086 150.711C261.997 151.753 263.091 152.56 264.367 153.133C265.669 153.706 267.141 153.992 268.781 153.992C270.812 153.992 272.701 153.602 274.445 152.82C276.216 152.013 277.74 150.802 279.016 149.188L284.484 155.125C283.599 156.401 282.388 157.625 280.852 158.797C279.341 159.969 277.518 160.932 275.383 161.688C273.247 162.417 270.812 162.781 268.078 162.781ZM303.078 128.953V162H291.828V119.734H302.414L303.078 128.953ZM315.812 119.461L315.617 129.891C315.07 129.812 314.406 129.747 313.625 129.695C312.87 129.617 312.18 129.578 311.555 129.578C309.966 129.578 308.586 129.786 307.414 130.203C306.268 130.594 305.305 131.18 304.523 131.961C303.768 132.742 303.195 133.693 302.805 134.812C302.44 135.932 302.232 137.208 302.18 138.641L299.914 137.938C299.914 135.203 300.188 132.69 300.734 130.398C301.281 128.081 302.076 126.062 303.117 124.344C304.185 122.625 305.487 121.297 307.023 120.359C308.56 119.422 310.318 118.953 312.297 118.953C312.922 118.953 313.56 119.005 314.211 119.109C314.862 119.188 315.396 119.305 315.812 119.461ZM339.797 162.781C336.516 162.781 333.573 162.26 330.969 161.219C328.365 160.151 326.151 158.68 324.328 156.805C322.531 154.93 321.151 152.755 320.188 150.281C319.224 147.781 318.742 145.125 318.742 142.312V140.75C318.742 137.547 319.198 134.617 320.109 131.961C321.021 129.305 322.323 127 324.016 125.047C325.734 123.094 327.818 121.596 330.266 120.555C332.714 119.487 335.474 118.953 338.547 118.953C341.542 118.953 344.198 119.448 346.516 120.438C348.833 121.427 350.773 122.833 352.336 124.656C353.924 126.479 355.122 128.667 355.93 131.219C356.737 133.745 357.141 136.557 357.141 139.656V144.344H323.547V136.844H346.086V135.984C346.086 134.422 345.799 133.029 345.227 131.805C344.68 130.555 343.846 129.565 342.727 128.836C341.607 128.107 340.174 127.742 338.43 127.742C336.945 127.742 335.669 128.068 334.602 128.719C333.534 129.37 332.661 130.281 331.984 131.453C331.333 132.625 330.839 134.005 330.5 135.594C330.188 137.156 330.031 138.875 330.031 140.75V142.312C330.031 144.005 330.266 145.568 330.734 147C331.229 148.432 331.919 149.669 332.805 150.711C333.716 151.753 334.81 152.56 336.086 153.133C337.388 153.706 338.859 153.992 340.5 153.992C342.531 153.992 344.419 153.602 346.164 152.82C347.935 152.013 349.458 150.802 350.734 149.188L356.203 155.125C355.318 156.401 354.107 157.625 352.57 158.797C351.06 159.969 349.237 160.932 347.102 161.688C344.966 162.417 342.531 162.781 339.797 162.781Z" fill="url(#paint0_linear_14_3073)"/>
<defs>
<linearGradient id="paint0_linear_14_3073" x1="478.176" y1="187" x2="-18.9847" y2="37.0587" gradientUnits="userSpaceOnUse">
<stop stop-color="#9100C5"/>
<stop offset="1" stop-color="#6A95EA"/>
</linearGradient>
</defs>
</svg>
