<svg width="211" height="43" viewBox="0 0 211 43" fill="none" xmlns="http://www.w3.org/2000/svg">
<rect x="1.5" y="1.5" width="208" height="40" rx="18.5" stroke="url(#paint0_linear_36_412)" stroke-width="3"/>
<path d="M69.9844 10.25H74.2812V25.3594C74.2812 27.099 73.9062 28.5625 73.1562 29.75C72.4062 30.9271 71.3854 31.8177 70.0938 32.4219C68.8021 33.0156 67.3333 33.3125 65.6875 33.3125C64.0208 33.3125 62.5365 33.0156 61.2344 32.4219C59.9323 31.8177 58.9115 30.9271 58.1719 29.75C57.4323 28.5625 57.0625 27.099 57.0625 25.3594V10.25H61.3594V25.3594C61.3594 26.4219 61.5365 27.2917 61.8906 27.9688C62.2448 28.6354 62.7448 29.1302 63.3906 29.4531C64.0365 29.776 64.8021 29.9375 65.6875 29.9375C66.5833 29.9375 67.349 29.776 67.9844 29.4531C68.6302 29.1302 69.125 28.6354 69.4688 27.9688C69.8125 27.2917 69.9844 26.4219 69.9844 25.3594V10.25ZM82.1719 19.3438V39.5H78.0312V16.0938H81.8594L82.1719 19.3438ZM93.0312 24.375V24.7031C93.0312 25.9323 92.8854 27.0729 92.5938 28.125C92.3125 29.1667 91.8958 30.0781 91.3438 30.8594C90.7917 31.6302 90.1042 32.2344 89.2812 32.6719C88.4688 33.099 87.5312 33.3125 86.4688 33.3125C85.4271 33.3125 84.5208 33.1146 83.75 32.7188C82.9792 32.3125 82.3281 31.7396 81.7969 31C81.2656 30.2604 80.8385 29.401 80.5156 28.4219C80.2031 27.4323 79.9688 26.3542 79.8125 25.1875V24.1406C79.9688 22.901 80.2031 21.776 80.5156 20.7656C80.8385 19.7448 81.2656 18.8646 81.7969 18.125C82.3281 17.375 82.974 16.7969 83.7344 16.3906C84.5052 15.9844 85.4062 15.7812 86.4375 15.7812C87.5104 15.7812 88.4531 15.9844 89.2656 16.3906C90.0885 16.7969 90.7812 17.3802 91.3438 18.1406C91.9062 18.901 92.3281 19.8073 92.6094 20.8594C92.8906 21.9115 93.0312 23.0833 93.0312 24.375ZM88.8906 24.7031V24.375C88.8906 23.625 88.8229 22.9323 88.6875 22.2969C88.5521 21.651 88.3438 21.0885 88.0625 20.6094C87.7812 20.1198 87.4167 19.7396 86.9688 19.4688C86.5208 19.1979 85.9792 19.0625 85.3438 19.0625C84.7083 19.0625 84.1615 19.1667 83.7031 19.375C83.2448 19.5833 82.8698 19.8802 82.5781 20.2656C82.2865 20.651 82.0573 21.1094 81.8906 21.6406C81.7344 22.1615 81.6302 22.7396 81.5781 23.375V25.9688C81.6719 26.7396 81.8542 27.4323 82.125 28.0469C82.3958 28.6615 82.7917 29.151 83.3125 29.5156C83.8438 29.8802 84.5312 30.0625 85.375 30.0625C86.0104 30.0625 86.5521 29.9219 87 29.6406C87.4479 29.3594 87.8125 28.974 88.0938 28.4844C88.375 27.9844 88.5781 27.4115 88.7031 26.7656C88.8281 26.1198 88.8906 25.4323 88.8906 24.7031ZM100.422 9V33H96.2812V9H100.422ZM103.625 24.7188V24.3906C103.625 23.151 103.802 22.0104 104.156 20.9688C104.51 19.9167 105.026 19.0052 105.703 18.2344C106.38 17.4635 107.208 16.8646 108.188 16.4375C109.167 16 110.281 15.7812 111.531 15.7812C112.802 15.7812 113.927 16 114.906 16.4375C115.896 16.8646 116.729 17.4635 117.406 18.2344C118.083 19.0052 118.599 19.9167 118.953 20.9688C119.307 22.0104 119.484 23.151 119.484 24.3906V24.7188C119.484 25.9479 119.307 27.0885 118.953 28.1406C118.599 29.1823 118.083 30.0938 117.406 30.875C116.729 31.6458 115.901 32.2448 114.922 32.6719C113.943 33.099 112.823 33.3125 111.562 33.3125C110.312 33.3125 109.193 33.099 108.203 32.6719C107.214 32.2448 106.38 31.6458 105.703 30.875C105.026 30.0938 104.51 29.1823 104.156 28.1406C103.802 27.0885 103.625 25.9479 103.625 24.7188ZM107.75 24.3906V24.7188C107.75 25.4583 107.823 26.151 107.969 26.7969C108.115 27.4427 108.339 28.0104 108.641 28.5C108.943 28.9896 109.333 29.375 109.812 29.6562C110.302 29.9271 110.885 30.0625 111.562 30.0625C112.229 30.0625 112.802 29.9271 113.281 29.6562C113.76 29.375 114.151 28.9896 114.453 28.5C114.766 28.0104 114.995 27.4427 115.141 26.7969C115.286 26.151 115.359 25.4583 115.359 24.7188V24.3906C115.359 23.6615 115.286 22.9792 115.141 22.3438C114.995 21.6979 114.766 21.1302 114.453 20.6406C114.151 20.1406 113.755 19.75 113.266 19.4688C112.786 19.1771 112.208 19.0312 111.531 19.0312C110.865 19.0312 110.292 19.1771 109.812 19.4688C109.333 19.75 108.943 20.1406 108.641 20.6406C108.339 21.1302 108.115 21.6979 107.969 22.3438C107.823 22.9792 107.75 23.6615 107.75 24.3906ZM131.797 29.4062V21.6094C131.797 21.0365 131.698 20.5417 131.5 20.125C131.302 19.7083 131 19.3854 130.594 19.1562C130.188 18.9271 129.672 18.8125 129.047 18.8125C128.495 18.8125 128.01 18.9062 127.594 19.0938C127.188 19.2812 126.875 19.5469 126.656 19.8906C126.438 20.224 126.328 20.6094 126.328 21.0469H122.188C122.188 20.349 122.354 19.6875 122.688 19.0625C123.021 18.4271 123.495 17.8646 124.109 17.375C124.734 16.875 125.479 16.4844 126.344 16.2031C127.219 15.9219 128.198 15.7812 129.281 15.7812C130.562 15.7812 131.703 16 132.703 16.4375C133.714 16.8646 134.505 17.5104 135.078 18.375C135.661 19.2396 135.953 20.3281 135.953 21.6406V29.0156C135.953 29.8594 136.005 30.5833 136.109 31.1875C136.224 31.7812 136.391 32.2969 136.609 32.7344V33H132.406C132.208 32.5729 132.057 32.0312 131.953 31.375C131.849 30.7083 131.797 30.0521 131.797 29.4062ZM132.375 22.7031L132.406 25.1562H129.797C129.151 25.1562 128.583 25.224 128.094 25.3594C127.604 25.4844 127.203 25.6719 126.891 25.9219C126.578 26.1615 126.344 26.4531 126.188 26.7969C126.031 27.1302 125.953 27.5104 125.953 27.9375C125.953 28.3542 126.047 28.7292 126.234 29.0625C126.432 29.3958 126.714 29.6615 127.078 29.8594C127.453 30.0469 127.891 30.1406 128.391 30.1406C129.12 30.1406 129.755 29.9948 130.297 29.7031C130.839 29.401 131.26 29.0365 131.562 28.6094C131.865 28.1823 132.026 27.776 132.047 27.3906L133.234 29.1719C133.089 29.599 132.87 30.0521 132.578 30.5312C132.286 31.0104 131.911 31.4583 131.453 31.875C130.995 32.2917 130.443 32.6354 129.797 32.9062C129.151 33.1771 128.401 33.3125 127.547 33.3125C126.453 33.3125 125.474 33.0938 124.609 32.6562C123.745 32.2188 123.062 31.6198 122.562 30.8594C122.062 30.099 121.812 29.2344 121.812 28.2656C121.812 27.3698 121.979 26.5781 122.312 25.8906C122.646 25.2031 123.141 24.625 123.797 24.1562C124.453 23.6771 125.266 23.3177 126.234 23.0781C127.214 22.8281 128.333 22.7031 129.594 22.7031H132.375ZM149.812 29.4062V9H153.969V33H150.219L149.812 29.4062ZM138.953 24.75V24.4219C138.953 23.1302 139.099 21.9583 139.391 20.9062C139.693 19.8438 140.13 18.9323 140.703 18.1719C141.276 17.4115 141.969 16.8229 142.781 16.4062C143.604 15.9896 144.536 15.7812 145.578 15.7812C146.589 15.7812 147.469 15.9844 148.219 16.3906C148.979 16.7969 149.625 17.375 150.156 18.125C150.698 18.875 151.13 19.7656 151.453 20.7969C151.776 21.8177 152.01 22.9427 152.156 24.1719V25.0625C152.01 26.2604 151.776 27.3594 151.453 28.3594C151.13 29.3594 150.698 30.2344 150.156 30.9844C149.625 31.724 148.979 32.2969 148.219 32.7031C147.458 33.1094 146.568 33.3125 145.547 33.3125C144.516 33.3125 143.589 33.099 142.766 32.6719C141.953 32.2448 141.26 31.6458 140.688 30.875C140.125 30.1042 139.693 29.1979 139.391 28.1562C139.099 27.1146 138.953 25.9792 138.953 24.75ZM143.094 24.4219V24.75C143.094 25.4792 143.156 26.1615 143.281 26.7969C143.406 27.4323 143.609 27.9948 143.891 28.4844C144.172 28.9635 144.531 29.3385 144.969 29.6094C145.417 29.8802 145.958 30.0156 146.594 30.0156C147.406 30.0156 148.073 29.8385 148.594 29.4844C149.125 29.1198 149.536 28.625 149.828 28C150.12 27.3646 150.307 26.651 150.391 25.8594V23.4062C150.349 22.7812 150.24 22.2031 150.062 21.6719C149.896 21.1406 149.656 20.6823 149.344 20.2969C149.042 19.9115 148.667 19.6094 148.219 19.3906C147.771 19.1719 147.24 19.0625 146.625 19.0625C145.99 19.0625 145.448 19.2031 145 19.4844C144.552 19.7552 144.188 20.1354 143.906 20.625C143.625 21.1146 143.417 21.6823 143.281 22.3281C143.156 22.974 143.094 23.6719 143.094 24.4219Z" fill="black"/>
<defs>
<linearGradient id="paint0_linear_36_412" x1="211.078" y1="43" x2="42.1351" y2="-65.3425" gradientUnits="userSpaceOnUse">
<stop stop-color="#9100C5"/>
<stop offset="1" stop-color="#6A95EA"/>
</linearGradient>
</defs>
</svg>
