<svg width="219" height="51" viewBox="0 0 219 51" fill="none" xmlns="http://www.w3.org/2000/svg">
<g filter="url(#filter0_d_145_1847)">
<rect x="5.5" y="1.5" width="208" height="40" rx="18.5" stroke="url(#paint0_linear_145_1847)" stroke-width="3"/>
<path d="M86.1875 29.625V33H74.75V29.625H86.1875ZM76.0469 10.25V33H71.75V10.25H76.0469ZM88.0156 24.7188V24.3906C88.0156 23.151 88.1927 22.0104 88.5469 20.9688C88.901 19.9167 89.4167 19.0052 90.0938 18.2344C90.7708 17.4635 91.599 16.8646 92.5781 16.4375C93.5573 16 94.6719 15.7812 95.9219 15.7812C97.1927 15.7812 98.3177 16 99.2969 16.4375C100.286 16.8646 101.12 17.4635 101.797 18.2344C102.474 19.0052 102.99 19.9167 103.344 20.9688C103.698 22.0104 103.875 23.151 103.875 24.3906V24.7188C103.875 25.9479 103.698 27.0885 103.344 28.1406C102.99 29.1823 102.474 30.0938 101.797 30.875C101.12 31.6458 100.292 32.2448 99.3125 32.6719C98.3333 33.099 97.2135 33.3125 95.9531 33.3125C94.7031 33.3125 93.5833 33.099 92.5938 32.6719C91.6042 32.2448 90.7708 31.6458 90.0938 30.875C89.4167 30.0938 88.901 29.1823 88.5469 28.1406C88.1927 27.0885 88.0156 25.9479 88.0156 24.7188ZM92.1406 24.3906V24.7188C92.1406 25.4583 92.2135 26.151 92.3594 26.7969C92.5052 27.4427 92.7292 28.0104 93.0312 28.5C93.3333 28.9896 93.724 29.375 94.2031 29.6562C94.6927 29.9271 95.276 30.0625 95.9531 30.0625C96.6198 30.0625 97.1927 29.9271 97.6719 29.6562C98.151 29.375 98.5417 28.9896 98.8438 28.5C99.1562 28.0104 99.3854 27.4427 99.5312 26.7969C99.6771 26.151 99.75 25.4583 99.75 24.7188V24.3906C99.75 23.6615 99.6771 22.9792 99.5312 22.3438C99.3854 21.6979 99.1562 21.1302 98.8438 20.6406C98.5417 20.1406 98.1458 19.75 97.6562 19.4688C97.1771 19.1771 96.599 19.0312 95.9219 19.0312C95.2552 19.0312 94.6823 19.1771 94.2031 19.4688C93.724 19.75 93.3333 20.1406 93.0312 20.6406C92.7292 21.1302 92.5052 21.6979 92.3594 22.3438C92.2135 22.9792 92.1406 23.6615 92.1406 24.3906ZM117.625 16.0938H121.375V32.4844C121.375 34.0156 121.042 35.3125 120.375 36.375C119.719 37.4479 118.797 38.2604 117.609 38.8125C116.422 39.375 115.042 39.6562 113.469 39.6562C112.792 39.6562 112.057 39.5625 111.266 39.375C110.484 39.1875 109.729 38.8906 109 38.4844C108.281 38.0885 107.682 37.5729 107.203 36.9375L109.062 34.5C109.625 35.1562 110.26 35.651 110.969 35.9844C111.677 36.3281 112.443 36.5 113.266 36.5C114.099 36.5 114.807 36.3438 115.391 36.0312C115.984 35.7292 116.438 35.2812 116.75 34.6875C117.073 34.1042 117.234 33.3854 117.234 32.5312V19.9531L117.625 16.0938ZM106.203 24.75V24.4219C106.203 23.1302 106.359 21.9583 106.672 20.9062C106.984 19.8438 107.432 18.9323 108.016 18.1719C108.609 17.4115 109.323 16.8229 110.156 16.4062C111 15.9896 111.948 15.7812 113 15.7812C114.115 15.7812 115.052 15.9844 115.812 16.3906C116.583 16.7969 117.219 17.375 117.719 18.125C118.229 18.875 118.625 19.7656 118.906 20.7969C119.198 21.8177 119.422 22.9427 119.578 24.1719V25.0625C119.432 26.2604 119.198 27.3594 118.875 28.3594C118.562 29.3594 118.146 30.2344 117.625 30.9844C117.104 31.724 116.458 32.2969 115.688 32.7031C114.917 33.1094 114.01 33.3125 112.969 33.3125C111.927 33.3125 110.99 33.099 110.156 32.6719C109.323 32.2448 108.609 31.6458 108.016 30.875C107.432 30.1042 106.984 29.1979 106.672 28.1562C106.359 27.1146 106.203 25.9792 106.203 24.75ZM110.328 24.4219V24.75C110.328 25.4792 110.401 26.1615 110.547 26.7969C110.693 27.4323 110.917 27.9948 111.219 28.4844C111.521 28.9635 111.901 29.3385 112.359 29.6094C112.818 29.8802 113.365 30.0156 114 30.0156C114.854 30.0156 115.552 29.8385 116.094 29.4844C116.646 29.1198 117.062 28.625 117.344 28C117.635 27.3646 117.823 26.651 117.906 25.8594V23.4062C117.854 22.7812 117.74 22.2031 117.562 21.6719C117.396 21.1406 117.161 20.6823 116.859 20.2969C116.557 19.9115 116.172 19.6094 115.703 19.3906C115.234 19.1719 114.677 19.0625 114.031 19.0625C113.406 19.0625 112.859 19.2031 112.391 19.4844C111.922 19.7552 111.536 20.1354 111.234 20.625C110.932 21.1146 110.703 21.6823 110.547 22.3281C110.401 22.974 110.328 23.6719 110.328 24.4219ZM129.469 16.0938V33H125.328V16.0938H129.469ZM125.047 11.6719C125.047 11.0573 125.255 10.5469 125.672 10.1406C126.099 9.73438 126.672 9.53125 127.391 9.53125C128.109 9.53125 128.677 9.73438 129.094 10.1406C129.521 10.5469 129.734 11.0573 129.734 11.6719C129.734 12.276 129.521 12.7812 129.094 13.1875C128.677 13.5938 128.109 13.7969 127.391 13.7969C126.672 13.7969 126.099 13.5938 125.672 13.1875C125.255 12.7812 125.047 12.276 125.047 11.6719ZM137.453 19.7031V33H133.328V16.0938H137.203L137.453 19.7031ZM136.797 23.9375H135.578C135.589 22.7083 135.755 21.5938 136.078 20.5938C136.401 19.5938 136.854 18.7344 137.438 18.0156C138.031 17.2969 138.734 16.7448 139.547 16.3594C140.359 15.974 141.266 15.7812 142.266 15.7812C143.078 15.7812 143.812 15.8958 144.469 16.125C145.125 16.3542 145.688 16.7188 146.156 17.2188C146.635 17.7188 147 18.375 147.25 19.1875C147.51 19.9896 147.641 20.9792 147.641 22.1562V33H143.484V22.125C143.484 21.3542 143.37 20.7448 143.141 20.2969C142.922 19.849 142.599 19.5312 142.172 19.3438C141.755 19.1562 141.24 19.0625 140.625 19.0625C139.99 19.0625 139.432 19.1927 138.953 19.4531C138.484 19.7031 138.089 20.0521 137.766 20.5C137.453 20.9479 137.214 21.4635 137.047 22.0469C136.88 22.6302 136.797 23.2604 136.797 23.9375Z" fill="white"/>
</g>
<defs>
<filter id="filter0_d_145_1847" x="0" y="0" width="219" height="51" filterUnits="userSpaceOnUse" color-interpolation-filters="sRGB">
<feFlood flood-opacity="0" result="BackgroundImageFix"/>
<feColorMatrix in="SourceAlpha" type="matrix" values="0 0 0 0 0 0 0 0 0 0 0 0 0 0 0 0 0 0 127 0" result="hardAlpha"/>
<feOffset dy="4"/>
<feGaussianBlur stdDeviation="2"/>
<feComposite in2="hardAlpha" operator="out"/>
<feColorMatrix type="matrix" values="0 0 0 0 0 0 0 0 0 0 0 0 0 0 0 0 0 0 0.25 0"/>
<feBlend mode="normal" in2="BackgroundImageFix" result="effect1_dropShadow_145_1847"/>
<feBlend mode="normal" in="SourceGraphic" in2="effect1_dropShadow_145_1847" result="shape"/>
</filter>
<linearGradient id="paint0_linear_145_1847" x1="215.078" y1="43" x2="46.1351" y2="-65.3425" gradientUnits="userSpaceOnUse">
<stop stop-color="#9100C5"/>
<stop offset="1" stop-color="#6A95EA"/>
</linearGradient>
</defs>
</svg>
