<svg width="63" height="26" viewBox="0 0 63 26" fill="none" xmlns="http://www.w3.org/2000/svg">
<path d="M10.3516 18.0566V20H3.21289V18.0566H10.3516ZM3.89648 5.78125V20H1.44531V5.78125H3.89648ZM11.5625 14.834V14.6094C11.5625 13.8477 11.6732 13.1413 11.8945 12.4902C12.1159 11.8327 12.4349 11.263 12.8516 10.7812C13.2747 10.293 13.7891 9.91536 14.3945 9.64844C15.0065 9.375 15.6966 9.23828 16.4648 9.23828C17.2396 9.23828 17.9297 9.375 18.5352 9.64844C19.1471 9.91536 19.6647 10.293 20.0879 10.7812C20.5111 11.263 20.8333 11.8327 21.0547 12.4902C21.276 13.1413 21.3867 13.8477 21.3867 14.6094V14.834C21.3867 15.5957 21.276 16.3021 21.0547 16.9531C20.8333 17.6042 20.5111 18.1738 20.0879 18.6621C19.6647 19.1439 19.1504 19.5215 18.5449 19.7949C17.9395 20.0618 17.2526 20.1953 16.4844 20.1953C15.7096 20.1953 15.0163 20.0618 14.4043 19.7949C13.7988 19.5215 13.2845 19.1439 12.8613 18.6621C12.4382 18.1738 12.1159 17.6042 11.8945 16.9531C11.6732 16.3021 11.5625 15.5957 11.5625 14.834ZM13.916 14.6094V14.834C13.916 15.3092 13.9648 15.7585 14.0625 16.1816C14.1602 16.6048 14.3132 16.9759 14.5215 17.2949C14.7298 17.6139 14.9967 17.8646 15.3223 18.0469C15.6478 18.2292 16.0352 18.3203 16.4844 18.3203C16.9206 18.3203 17.2982 18.2292 17.6172 18.0469C17.9427 17.8646 18.2096 17.6139 18.418 17.2949C18.6263 16.9759 18.7793 16.6048 18.877 16.1816C18.9811 15.7585 19.0332 15.3092 19.0332 14.834V14.6094C19.0332 14.1406 18.9811 13.6979 18.877 13.2812C18.7793 12.8581 18.623 12.4837 18.4082 12.1582C18.1999 11.8327 17.9329 11.5788 17.6074 11.3965C17.2884 11.2077 16.9076 11.1133 16.4648 11.1133C16.0221 11.1133 15.638 11.2077 15.3125 11.3965C14.9935 11.5788 14.7298 11.8327 14.5215 12.1582C14.3132 12.4837 14.1602 12.8581 14.0625 13.2812C13.9648 13.6979 13.916 14.1406 13.916 14.6094ZM30.127 9.43359H32.2656V19.707C32.2656 20.6576 32.0638 21.4648 31.6602 22.1289C31.2565 22.793 30.6934 23.2975 29.9707 23.6426C29.248 23.9941 28.4115 24.1699 27.4609 24.1699C27.0573 24.1699 26.6081 24.1113 26.1133 23.9941C25.625 23.877 25.1497 23.6882 24.6875 23.4277C24.2318 23.1738 23.8509 22.8385 23.5449 22.4219L24.6484 21.0352C25.026 21.4844 25.4427 21.8132 25.8984 22.0215C26.3542 22.2298 26.8327 22.334 27.334 22.334C27.8743 22.334 28.3333 22.2331 28.7109 22.0312C29.0951 21.8359 29.3913 21.5462 29.5996 21.1621C29.8079 20.778 29.9121 20.3092 29.9121 19.7559V11.8262L30.127 9.43359ZM22.9492 14.834V14.6289C22.9492 13.8281 23.0469 13.099 23.2422 12.4414C23.4375 11.7773 23.7174 11.2077 24.082 10.7324C24.4466 10.2507 24.8893 9.88281 25.4102 9.62891C25.931 9.36849 26.5202 9.23828 27.1777 9.23828C27.8613 9.23828 28.444 9.36198 28.9258 9.60938C29.4141 9.85677 29.821 10.2116 30.1465 10.6738C30.472 11.1296 30.7259 11.6764 30.9082 12.3145C31.097 12.946 31.237 13.6491 31.3281 14.4238V15.0781C31.2435 15.8333 31.1003 16.5234 30.8984 17.1484C30.6966 17.7734 30.4297 18.3138 30.0977 18.7695C29.7656 19.2253 29.3555 19.5768 28.8672 19.8242C28.3854 20.0716 27.8158 20.1953 27.1582 20.1953C26.5137 20.1953 25.931 20.0618 25.4102 19.7949C24.8958 19.528 24.4531 19.1536 24.082 18.6719C23.7174 18.1901 23.4375 17.6237 23.2422 16.9727C23.0469 16.3151 22.9492 15.6022 22.9492 14.834ZM25.3027 14.6289V14.834C25.3027 15.3158 25.3483 15.765 25.4395 16.1816C25.5371 16.5983 25.6836 16.9661 25.8789 17.2852C26.0807 17.5977 26.3346 17.8451 26.6406 18.0273C26.9531 18.2031 27.321 18.291 27.7441 18.291C28.2975 18.291 28.75 18.1738 29.1016 17.9395C29.4596 17.7051 29.7331 17.3893 29.9219 16.9922C30.1172 16.5885 30.2539 16.1393 30.332 15.6445V13.877C30.293 13.4928 30.2116 13.1348 30.0879 12.8027C29.9707 12.4707 29.8112 12.181 29.6094 11.9336C29.4076 11.6797 29.1536 11.4844 28.8477 11.3477C28.5417 11.2044 28.1803 11.1328 27.7637 11.1328C27.3405 11.1328 26.9727 11.224 26.6602 11.4062C26.3477 11.5885 26.0905 11.8392 25.8887 12.1582C25.6934 12.4772 25.5469 12.8483 25.4492 13.2715C25.3516 13.6947 25.3027 14.1471 25.3027 14.6289ZM34.2578 14.834V14.6094C34.2578 13.8477 34.3685 13.1413 34.5898 12.4902C34.8112 11.8327 35.1302 11.263 35.5469 10.7812C35.9701 10.293 36.4844 9.91536 37.0898 9.64844C37.7018 9.375 38.3919 9.23828 39.1602 9.23828C39.9349 9.23828 40.625 9.375 41.2305 9.64844C41.8424 9.91536 42.36 10.293 42.7832 10.7812C43.2064 11.263 43.5286 11.8327 43.75 12.4902C43.9714 13.1413 44.082 13.8477 44.082 14.6094V14.834C44.082 15.5957 43.9714 16.3021 43.75 16.9531C43.5286 17.6042 43.2064 18.1738 42.7832 18.6621C42.36 19.1439 41.8457 19.5215 41.2402 19.7949C40.6348 20.0618 39.9479 20.1953 39.1797 20.1953C38.4049 20.1953 37.7116 20.0618 37.0996 19.7949C36.4941 19.5215 35.9798 19.1439 35.5566 18.6621C35.1335 18.1738 34.8112 17.6042 34.5898 16.9531C34.3685 16.3021 34.2578 15.5957 34.2578 14.834ZM36.6113 14.6094V14.834C36.6113 15.3092 36.6602 15.7585 36.7578 16.1816C36.8555 16.6048 37.0085 16.9759 37.2168 17.2949C37.4251 17.6139 37.6921 17.8646 38.0176 18.0469C38.3431 18.2292 38.7305 18.3203 39.1797 18.3203C39.6159 18.3203 39.9935 18.2292 40.3125 18.0469C40.638 17.8646 40.9049 17.6139 41.1133 17.2949C41.3216 16.9759 41.4746 16.6048 41.5723 16.1816C41.6764 15.7585 41.7285 15.3092 41.7285 14.834V14.6094C41.7285 14.1406 41.6764 13.6979 41.5723 13.2812C41.4746 12.8581 41.3184 12.4837 41.1035 12.1582C40.8952 11.8327 40.6283 11.5788 40.3027 11.3965C39.9837 11.2077 39.6029 11.1133 39.1602 11.1133C38.7174 11.1133 38.3333 11.2077 38.0078 11.3965C37.6888 11.5788 37.4251 11.8327 37.2168 12.1582C37.0085 12.4837 36.8555 12.8581 36.7578 13.2812C36.6602 13.6979 36.6113 14.1406 36.6113 14.6094ZM52.4121 17.5098V9.43359H54.7754V20H52.5488L52.4121 17.5098ZM52.7441 15.3125L53.5352 15.293C53.5352 16.0026 53.457 16.6569 53.3008 17.2559C53.1445 17.8483 52.9036 18.3659 52.5781 18.8086C52.2526 19.2448 51.8359 19.5866 51.3281 19.834C50.8203 20.0749 50.2116 20.1953 49.502 20.1953C48.9876 20.1953 48.5156 20.1204 48.0859 19.9707C47.6562 19.821 47.2852 19.5898 46.9727 19.2773C46.6667 18.9648 46.429 18.5579 46.2598 18.0566C46.0905 17.5553 46.0059 16.9564 46.0059 16.2598V9.43359H48.3594V16.2793C48.3594 16.6634 48.4049 16.9857 48.4961 17.2461C48.5872 17.5 48.7109 17.7051 48.8672 17.8613C49.0234 18.0176 49.2057 18.1283 49.4141 18.1934C49.6224 18.2585 49.8438 18.291 50.0781 18.291C50.7487 18.291 51.276 18.1608 51.6602 17.9004C52.0508 17.6335 52.3275 17.2754 52.4902 16.8262C52.6595 16.377 52.7441 15.8724 52.7441 15.3125ZM62.0312 9.43359V11.1523H56.0742V9.43359H62.0312ZM57.793 6.8457H60.1465V17.0801C60.1465 17.4056 60.1921 17.6562 60.2832 17.832C60.3809 18.0013 60.5143 18.1152 60.6836 18.1738C60.8529 18.2324 61.0514 18.2617 61.2793 18.2617C61.4421 18.2617 61.5983 18.252 61.748 18.2324C61.8978 18.2129 62.0182 18.1934 62.1094 18.1738L62.1191 19.9707C61.9238 20.0293 61.696 20.0814 61.4355 20.127C61.1816 20.1725 60.8887 20.1953 60.5566 20.1953C60.0163 20.1953 59.5378 20.1009 59.1211 19.9121C58.7044 19.7168 58.3789 19.401 58.1445 18.9648C57.9102 18.5286 57.793 17.9492 57.793 17.2266V6.8457Z" fill="white"/>
</svg>
